<?xml version="1.0" standalone="no"?>
<!DOCTYPE svg PUBLIC "-//W3C//DTD SVG 20010904//EN"
 "http://www.w3.org/TR/2001/REC-SVG-20010904/DTD/svg10.dtd">
<svg version="1.0" xmlns="http://www.w3.org/2000/svg"
 width="1035.000000pt" height="1035.000000pt" viewBox="0 0 1035.000000 1035.000000"
 preserveAspectRatio="xMidYMid meet">
<metadata>
Created by potrace 1.14, written by Peter Selinger 2001-2017
</metadata>
<g transform="translate(0.000000,1035.000000) scale(0.100000,-0.100000)"
fill="#000000" stroke="none">
<path d="M4907 9754 c-2 -2 -78 -4 -169 -4 -92 -1 -169 -4 -171 -7 -3 -3 -30
-6 -59 -8 -132 -9 -185 -14 -208 -20 -14 -3 -41 -8 -60 -11 -19 -2 -55 -9 -80
-15 -25 -5 -56 -12 -70 -14 -14 -3 -36 -7 -50 -10 -14 -3 -36 -7 -50 -10 -14
-3 -36 -7 -50 -10 -14 -2 -38 -7 -55 -10 -16 -2 -91 -23 -165 -45 -74 -23
-148 -43 -165 -46 -16 -4 -33 -11 -37 -17 -4 -7 -8 -9 -8 -5 0 8 -26 0 -150
-45 -162 -59 -285 -109 -291 -119 -3 -5 -9 -10 -12 -10 -20 0 -47 -12 -47 -20
0 -6 -6 -8 -14 -5 -8 3 -20 -1 -27 -9 -6 -8 -14 -13 -16 -10 -8 7 -342 -168
-354 -186 -3 -5 -10 -9 -15 -9 -5 1 -26 -10 -47 -24 -22 -14 -42 -25 -45 -25
-4 0 -19 -11 -34 -25 -15 -14 -33 -25 -40 -25 -8 0 -20 -9 -28 -19 -7 -11 -17
-18 -21 -16 -3 3 -22 -8 -40 -24 -18 -16 -37 -27 -41 -25 -4 3 -8 1 -8 -4 0
-9 -55 -48 -85 -61 -5 -2 -15 -9 -22 -15 -31 -27 -43 -36 -49 -36 -4 0 -17
-12 -30 -27 -13 -16 -24 -24 -24 -19 0 6 -6 3 -13 -6 -6 -8 -45 -41 -84 -73
-40 -31 -73 -61 -73 -66 0 -5 -5 -9 -10 -9 -9 0 -34 -19 -96 -77 -13 -12 -30
-26 -36 -30 -7 -4 -30 -27 -51 -51 -20 -23 -37 -40 -37 -37 0 6 -1 6 -130
-135 -47 -51 -97 -106 -113 -122 -15 -16 -27 -31 -27 -34 0 -3 -12 -19 -28
-34 -42 -45 -53 -60 -45 -60 4 0 -3 -7 -15 -16 -12 -8 -29 -28 -36 -43 -8 -15
-30 -45 -50 -67 -20 -21 -36 -43 -36 -47 0 -4 -5 -13 -10 -20 -39 -46 -50 -61
-50 -68 0 -5 -9 -16 -19 -26 -11 -10 -21 -24 -23 -31 -2 -8 -15 -27 -29 -43
-15 -15 -34 -44 -43 -64 -9 -19 -21 -35 -27 -35 -6 0 -8 -4 -5 -9 3 -5 -1 -14
-9 -21 -8 -7 -15 -17 -15 -22 0 -5 -11 -24 -25 -42 -14 -18 -22 -36 -18 -39 3
-4 1 -7 -5 -7 -7 0 -12 -7 -12 -15 0 -8 -9 -24 -20 -35 -11 -11 -17 -20 -14
-20 4 0 1 -6 -5 -13 -6 -8 -8 -17 -4 -20 3 -4 2 -7 -4 -7 -6 0 -16 -15 -24
-32 -7 -18 -21 -45 -30 -59 -10 -14 -16 -29 -12 -33 3 -3 1 -6 -5 -6 -7 0 -12
-6 -12 -14 0 -7 -8 -24 -19 -37 -10 -13 -22 -35 -26 -49 -4 -14 -13 -32 -21
-41 -7 -8 -15 -24 -17 -35 -5 -25 -29 -77 -40 -85 -5 -3 -8 -10 -7 -15 0 -5
-9 -31 -21 -59 -43 -97 -49 -113 -49 -124 0 -6 -4 -19 -9 -29 -13 -25 -27 -61
-46 -117 -9 -27 -19 -57 -22 -65 -4 -8 -7 -22 -8 -30 -1 -8 -7 -28 -14 -45
-15 -36 -59 -178 -64 -209 -2 -11 -7 -28 -10 -36 -4 -8 -16 -58 -28 -110 -11
-52 -23 -104 -26 -115 -2 -11 -5 -32 -6 -47 0 -16 -4 -28 -7 -28 -4 0 -6 -10
-5 -22 1 -13 -1 -27 -5 -33 -4 -5 -7 -17 -7 -25 0 -8 -5 -51 -11 -95 -12 -83
-23 -206 -25 -262 0 -18 -3 -33 -6 -33 -8 0 -5 -625 3 -710 4 -36 9 -96 12
-135 2 -38 7 -86 11 -105 3 -19 7 -55 10 -80 6 -56 10 -84 13 -87 1 -2 3 -6 4
-10 4 -18 16 -81 21 -113 3 -19 13 -60 21 -90 16 -58 21 -79 28 -108 16 -61
58 -209 63 -222 4 -8 7 -18 7 -22 1 -3 4 -9 8 -13 4 -4 4 -13 1 -21 -3 -8 -1
-14 4 -14 5 0 10 -6 10 -12 0 -15 39 -132 53 -163 5 -11 25 -62 45 -114 20
-52 40 -100 44 -105 5 -6 10 -15 11 -21 7 -33 94 -216 121 -256 10 -14 16 -29
12 -33 -3 -3 -2 -6 4 -6 6 0 13 -9 16 -21 3 -12 9 -19 14 -16 4 3 9 -6 9 -20
1 -13 9 -32 18 -42 9 -10 16 -22 16 -28 0 -6 3 -13 8 -15 4 -1 18 -25 31 -53
14 -27 27 -52 31 -55 4 -3 19 -26 34 -52 15 -27 32 -48 37 -48 5 0 8 -3 7 -7
-3 -10 39 -80 64 -107 9 -10 15 -22 13 -26 -2 -3 5 -13 16 -20 10 -8 19 -20
19 -27 0 -7 4 -13 8 -13 4 0 16 -14 26 -30 9 -17 42 -59 72 -95 30 -35 54 -65
54 -68 0 -2 22 -28 50 -58 27 -30 50 -57 50 -61 0 -5 7 -8 16 -8 8 0 12 -4 9
-10 -9 -14 8 -12 25 2 8 7 7 4 -3 -8 -12 -14 -13 -21 -5 -22 27 -2 48 -8 55
-17 4 -4 2 -5 -5 -1 -8 5 -11 1 -9 -11 4 -28 17 -44 29 -37 6 4 8 2 4 -4 -3
-6 -2 -13 2 -16 5 -3 8 -17 7 -31 -2 -14 1 -23 6 -19 5 3 6 11 2 17 -5 9 -3 9
8 0 12 -10 18 -10 29 0 10 9 11 9 6 0 -8 -14 27 -36 39 -25 5 4 5 1 1 -6 -5
-9 -13 -9 -29 -2 -19 9 -20 9 -4 -2 10 -7 64 -58 120 -113 57 -55 129 -122
162 -150 32 -27 76 -67 98 -87 21 -21 42 -38 45 -38 4 0 25 -17 47 -38 22 -21
56 -49 75 -62 38 -27 65 -48 85 -68 8 -6 16 -12 19 -12 3 0 15 -8 25 -18 30
-27 40 -33 144 -100 53 -34 101 -62 106 -62 5 0 11 -4 13 -9 3 -8 135 -91 145
-91 3 0 17 -9 33 -20 15 -11 30 -17 34 -13 3 3 6 0 6 -7 0 -7 3 -10 6 -7 4 3
18 -3 32 -13 13 -11 33 -20 44 -20 11 0 16 -4 13 -10 -3 -5 3 -10 14 -10 12 0
21 -3 21 -7 0 -5 21 -17 48 -27 45 -18 107 -46 217 -97 28 -13 52 -24 55 -24
3 -1 19 -8 35 -15 17 -7 35 -14 40 -16 6 -1 50 -18 100 -38 49 -20 96 -38 105
-39 8 -2 20 -5 25 -8 6 -4 28 -12 50 -19 22 -7 46 -18 54 -24 11 -8 13 -8 7 2
-4 7 6 5 26 -6 18 -10 41 -18 51 -16 9 1 17 -2 17 -8 0 -6 11 -8 25 -5 14 2
23 2 20 -1 -9 -9 212 -64 310 -77 17 -2 30 -4 30 -5 0 -2 28 -7 85 -15 25 -4
49 -10 54 -13 5 -3 21 -6 35 -8 14 -1 51 -5 81 -9 30 -3 69 -7 85 -8 17 -1 35
-5 42 -10 6 -4 14 -3 18 3 4 6 11 7 18 3 12 -7 70 -12 233 -17 62 -2 117 -6
123 -10 6 -4 11 -2 11 4 0 7 7 8 18 3 9 -5 37 -7 62 -6 63 4 70 4 113 0 20 -2
37 0 37 5 0 5 8 4 19 -1 10 -6 20 -8 23 -6 2 3 47 7 99 10 52 2 105 7 119 9
14 3 68 7 120 11 52 3 109 8 125 11 17 2 46 6 65 8 19 3 35 5 35 6 0 1 11 3
25 6 80 13 283 56 330 69 63 18 83 23 108 29 55 13 78 19 87 25 11 6 28 10 58
13 9 1 17 6 17 10 0 4 3 7 8 7 4 -1 10 0 15 1 4 1 12 4 17 5 6 1 11 3 13 5 1
1 9 3 17 5 36 9 59 16 115 35 33 11 69 25 80 30 76 35 134 57 139 52 3 -3 6 0
6 7 0 7 5 9 10 6 6 -3 10 -2 10 3 0 8 34 22 50 21 3 -1 28 11 56 25 29 14 56
26 60 26 13 0 279 134 282 142 2 5 10 8 18 8 8 0 14 4 14 8 0 5 20 17 45 28
25 10 45 21 45 24 0 4 19 17 43 30 23 13 51 32 61 42 11 10 24 18 29 18 5 0
19 8 32 18 24 18 35 25 105 71 25 16 54 38 65 48 11 10 50 40 85 68 77 59 82
63 120 95 16 14 45 39 65 55 19 17 54 47 76 67 22 21 42 38 44 38 2 0 75 70
162 155 86 85 161 155 165 155 4 0 8 5 8 10 0 6 17 27 38 49 20 21 55 60 77
86 22 26 45 52 50 59 6 6 30 36 55 66 25 30 53 64 63 74 9 11 17 23 17 27 0 4
6 14 13 21 13 14 55 71 72 99 6 9 29 44 53 77 23 34 42 66 42 71 0 6 3 11 8
11 4 0 18 20 32 45 14 25 29 45 34 45 5 0 6 3 3 7 -4 3 4 20 16 37 13 17 41
63 62 101 22 39 45 76 52 83 12 12 15 21 12 38 0 4 4 10 9 13 9 6 66 119 67
133 0 4 6 13 13 20 6 6 12 17 12 23 0 6 10 31 22 56 12 24 22 46 23 49 1 3 13
31 28 63 15 32 27 64 27 72 0 8 5 15 11 15 5 0 8 4 5 8 -3 5 2 21 9 36 8 16
13 32 10 36 -3 5 -2 10 2 12 8 3 64 154 66 176 0 6 3 12 7 12 4 0 7 6 8 13 0
6 5 28 11 47 6 19 16 56 22 82 7 27 16 48 21 48 5 0 6 5 3 10 -3 6 -3 16 2 23
4 6 8 17 9 22 2 10 3 15 28 131 9 39 18 88 22 110 3 21 8 43 11 48 3 4 7 20 9
35 1 14 5 37 8 51 20 82 44 272 51 390 3 47 8 121 11 165 8 107 11 437 5 450
-3 5 -6 34 -7 65 -1 30 -2 55 -4 55 -1 0 -4 27 -6 60 -8 141 -13 198 -18 203
-3 3 -6 20 -6 38 0 18 -5 57 -12 86 -6 29 -11 59 -9 66 1 6 -2 12 -6 12 -5 0
-9 12 -10 28 0 15 -3 38 -7 52 -6 24 -22 105 -30 145 -2 11 -10 40 -17 65 -7
25 -12 51 -10 58 1 6 -2 12 -6 12 -5 0 -10 12 -11 26 -1 14 -5 31 -9 37 -4 7
-8 17 -10 22 -10 46 -13 56 -18 65 -4 6 -9 22 -11 37 -3 15 -10 33 -16 40 -6
7 -7 13 -3 13 4 0 3 6 -3 13 -5 6 -12 27 -15 45 -3 18 -13 44 -21 57 -9 13
-16 33 -16 45 0 11 -4 20 -10 20 -5 0 -7 7 -4 15 4 8 1 15 -7 15 -7 0 -10 2
-7 6 3 3 -10 42 -29 87 -19 45 -37 90 -40 100 -3 9 -10 17 -16 17 -6 0 -7 3
-4 6 4 4 0 19 -7 33 -7 14 -28 58 -46 96 -18 39 -45 95 -60 125 -16 30 -41 80
-56 110 -16 30 -33 58 -39 62 -6 5 -6 8 0 8 6 0 5 4 -1 8 -6 4 -20 23 -31 42
-10 19 -31 54 -46 77 -15 24 -27 45 -27 47 0 3 -20 34 -45 69 -25 36 -45 70
-45 76 0 6 -5 11 -11 11 -5 0 -7 5 -4 10 3 6 3 10 -2 10 -4 0 -21 21 -38 48
-16 26 -32 49 -35 52 -4 4 -69 90 -105 139 -5 7 -22 26 -37 42 -14 16 -24 29
-22 29 5 0 -1 8 -51 65 -20 21 -45 54 -58 72 -12 18 -28 33 -36 33 -8 0 -12 3
-8 6 10 11 -346 361 -458 449 -58 45 -78 63 -106 88 -10 9 -23 17 -29 17 -5 0
-10 3 -10 8 0 4 -33 32 -72 62 -40 30 -74 58 -76 62 -2 5 -10 8 -18 8 -8 0
-14 4 -14 8 0 5 -12 15 -27 23 -16 8 -30 17 -33 20 -16 18 -98 67 -104 62 -3
-4 -6 -1 -6 5 0 6 -15 19 -32 28 -18 9 -51 28 -73 42 -22 14 -41 24 -41 21 -1
-2 -11 5 -23 15 -12 11 -21 15 -21 10 0 -5 -4 -4 -8 2 -10 15 -145 90 -205
113 -20 8 -37 18 -37 23 0 4 -9 8 -20 8 -11 0 -20 5 -20 12 0 6 -3 9 -6 5 -3
-3 -27 5 -52 18 -112 56 -362 161 -400 169 -9 1 -26 6 -37 10 -83 31 -136 49
-250 84 -113 35 -157 47 -261 66 -11 2 -49 11 -85 20 -35 9 -77 18 -94 20 -30
4 -66 11 -127 22 -44 8 -92 14 -154 19 -28 2 -64 7 -80 10 -16 3 -105 8 -199
11 -93 3 -198 6 -232 8 -35 1 -64 1 -66 0z"/>
<path d="M1413 2055 c0 -6 10 -11 21 -12 12 -1 15 1 8 4 -6 3 -10 8 -8 12 3 4
-1 8 -8 8 -7 0 -13 -5 -13 -12z"/>
<path d="M1441 2018 c9 -7 14 -20 12 -28 -4 -13 -3 -13 6 0 7 10 11 11 11 3 0
-7 5 -13 11 -13 16 0 -9 28 -35 41 -18 9 -19 8 -5 -3z"/>
<path d="M1521 1941 c-8 -5 -9 -11 -3 -15 5 -3 12 1 16 9 6 17 6 18 -13 6z"/>
</g>
</svg>
