<svg xmlns="http://www.w3.org/2000/svg" viewBox="0 0 1200 720" role="img" aria-labelledby="title desc">
  <title id="title">Vadum visualization preview</title>
  <desc id="desc">A simulation visualization dashboard with contours, time controls, and diagnostics.</desc>
  <defs>
    <linearGradient id="bg" x1="0" x2="1" y1="0" y2="1">
      <stop offset="0" stop-color="#162033"/>
      <stop offset="0.62" stop-color="#334a67"/>
      <stop offset="1" stop-color="#6c8fb1"/>
    </linearGradient>
    <linearGradient id="field" x1="0" x2="1">
      <stop offset="0" stop-color="#1d4e89"/>
      <stop offset="0.38" stop-color="#4fb3bf"/>
      <stop offset="0.72" stop-color="#f2c14e"/>
      <stop offset="1" stop-color="#d95d39"/>
    </linearGradient>
  </defs>
  <rect width="1200" height="720" fill="url(#bg)"/>
  <g transform="translate(86 76)">
    <rect x="0" y="0" width="1028" height="568" rx="26" fill="#f8fbff" opacity="0.96"/>
    <rect x="28" y="28" width="972" height="56" rx="14" fill="#e5ebf2"/>
    <circle cx="60" cy="56" r="8" fill="#d95d39"/>
    <circle cx="88" cy="56" r="8" fill="#f2c14e"/>
    <circle cx="116" cy="56" r="8" fill="#4fb3bf"/>
    <text x="154" y="64" font-family="Arial, sans-serif" font-size="22" font-weight="700" fill="#162033">Vadum simulation viewer</text>
    <rect x="28" y="112" width="652" height="360" rx="18" fill="#162033"/>
    <path d="M62 360 C155 242 242 402 338 254 S518 188 648 286 L648 442 L62 442 Z" fill="url(#field)" opacity="0.96"/>
    <g fill="none" stroke="#ffffff" stroke-width="2" opacity="0.48">
      <path d="M78 338 C160 287 221 337 296 288 S458 240 632 268"/>
      <path d="M78 388 C174 314 241 386 326 330 S500 292 632 336"/>
      <path d="M78 268 C152 222 215 282 292 230 S484 170 632 202"/>
    </g>
    <g transform="translate(716 112)" font-family="Arial, sans-serif">
      <rect x="0" y="0" width="264" height="92" rx="16" fill="#edf3f8"/>
      <text x="22" y="36" font-size="20" font-weight="700" fill="#162033">Time step</text>
      <text x="22" y="66" font-size="26" font-weight="700" fill="#1d4e89">01842</text>
      <rect x="0" y="116" width="264" height="92" rx="16" fill="#edf3f8"/>
      <text x="22" y="152" font-size="20" font-weight="700" fill="#162033">Residual</text>
      <text x="22" y="182" font-size="26" font-weight="700" fill="#2f855a">3.1e-6</text>
      <rect x="0" y="232" width="264" height="132" rx="16" fill="#edf3f8"/>
      <text x="22" y="268" font-size="20" font-weight="700" fill="#162033">Fields</text>
      <text x="22" y="303" font-size="17" fill="#566579">velocity</text>
      <text x="22" y="330" font-size="17" fill="#566579">pressure</text>
    </g>
    <rect x="28" y="502" width="972" height="24" rx="12" fill="#d9e2ec"/>
    <rect x="28" y="502" width="612" height="24" rx="12" fill="#4fb3bf"/>
  </g>
</svg>
