<svg xmlns="http://www.w3.org/2000/svg" viewBox="0 0 1200 720" role="img" aria-labelledby="title desc">
  <title id="title">Torrentem multiphysics solver preview</title>
  <desc id="desc">A finite element mesh, free surface flow field, and compute pipeline for a multiphysics solver.</desc>
  <defs>
    <linearGradient id="bg" x1="0" x2="1" y1="0" y2="1">
      <stop offset="0" stop-color="#102333"/>
      <stop offset="0.58" stop-color="#21445a"/>
      <stop offset="1" stop-color="#e2a85f"/>
    </linearGradient>
    <linearGradient id="water" x1="0" x2="1">
      <stop offset="0" stop-color="#5cc0d6"/>
      <stop offset="1" stop-color="#e9c46a"/>
    </linearGradient>
    <filter id="soft" x="-20%" y="-20%" width="140%" height="140%">
      <feGaussianBlur stdDeviation="18"/>
    </filter>
  </defs>
  <rect width="1200" height="720" rx="0" fill="url(#bg)"/>
  <circle cx="990" cy="118" r="180" fill="#f3c46c" opacity="0.22" filter="url(#soft)"/>
  <circle cx="205" cy="625" r="220" fill="#45b7c8" opacity="0.15" filter="url(#soft)"/>
  <g opacity="0.22" stroke="#d9e8ee" stroke-width="1">
    <path d="M0 236 C188 174 352 280 528 226 S835 130 1200 203"/>
    <path d="M0 300 C222 238 360 347 560 286 S880 190 1200 268"/>
    <path d="M0 366 C238 328 403 414 608 350 S900 280 1200 336"/>
    <path d="M0 438 C215 393 430 493 616 425 S895 372 1200 426"/>
  </g>
  <g transform="translate(92 112)">
    <rect x="0" y="0" width="520" height="440" rx="22" fill="#f8fbfc" opacity="0.94"/>
    <rect x="28" y="28" width="464" height="300" rx="16" fill="#dceaf0"/>
    <g fill="none" stroke="#2f566b" stroke-width="2" opacity="0.75">
      <path d="M48 286 L126 232 L220 276 L312 214 L410 256 L472 188"/>
      <path d="M48 214 L116 164 L204 220 L296 156 L382 210 L472 130"/>
      <path d="M48 120 L135 83 L222 134 L304 74 L392 124 L472 76"/>
      <path d="M126 232 L116 164 L135 83"/>
      <path d="M220 276 L204 220 L222 134"/>
      <path d="M312 214 L296 156 L304 74"/>
      <path d="M410 256 L382 210 L392 124"/>
      <path d="M48 286 L48 214 L48 120"/>
      <path d="M472 188 L472 130 L472 76"/>
    </g>
    <path d="M28 245 C114 212 181 290 264 245 S401 204 492 237 L492 328 L28 328 Z" fill="url(#water)" opacity="0.9"/>
    <g fill="#102333">
      <text x="30" y="374" font-family="Arial, sans-serif" font-size="30" font-weight="700">Torrentem</text>
      <text x="30" y="408" font-family="Arial, sans-serif" font-size="20">RBVMS FEM + level set flow</text>
    </g>
  </g>
  <g transform="translate(700 132)" fill="none" stroke="#f8fbfc" stroke-width="4" stroke-linecap="round">
    <path d="M0 74 H145"/>
    <path d="M145 74 C218 74 218 208 292 208"/>
    <path d="M145 74 C218 74 218 0 292 0"/>
    <path d="M292 0 H412"/>
    <path d="M292 208 H412"/>
  </g>
  <g font-family="Arial, sans-serif" font-size="22" font-weight="700">
    <rect x="690" y="82" width="156" height="88" rx="16" fill="#f8fbfc" opacity="0.93"/>
    <text x="728" y="133" fill="#102333">Mesh</text>
    <rect x="982" y="38" width="154" height="88" rx="16" fill="#f8fbfc" opacity="0.93"/>
    <text x="1018" y="91" fill="#102333">GPU</text>
    <rect x="982" y="245" width="154" height="88" rx="16" fill="#f8fbfc" opacity="0.93"/>
    <text x="1017" y="299" fill="#102333">MPI</text>
  </g>
  <g transform="translate(690 472)" font-family="Arial, sans-serif">
    <text x="0" y="0" fill="#f8fbfc" font-size="34" font-weight="700">parallel multiphysics</text>
    <text x="0" y="42" fill="#d9e8ee" font-size="22">hydrodynamics to photopolymerization</text>
  </g>
</svg>
