<svg xmlns="http://www.w3.org/2000/svg" viewBox="0 0 1200 720" role="img" aria-labelledby="title desc">
  <title id="title">Stratum photopolymerization build preparation preview</title>
  <desc id="desc">Layer slicing, irradiance planning, and G-code output for DLP and SLA photopolymerization printers.</desc>
  <defs>
    <linearGradient id="bg" x1="0" x2="1" y1="0" y2="1">
      <stop offset="0" stop-color="#231d31"/>
      <stop offset="0.58" stop-color="#59466f"/>
      <stop offset="1" stop-color="#d98859"/>
    </linearGradient>
    <linearGradient id="layer" x1="0" x2="1">
      <stop offset="0" stop-color="#f6d365"/>
      <stop offset="1" stop-color="#fda085"/>
    </linearGradient>
  </defs>
  <rect width="1200" height="720" fill="url(#bg)"/>
  <g transform="translate(86 94)">
    <rect x="0" y="0" width="444" height="520" rx="24" fill="#fffaf7" opacity="0.95"/>
    <g transform="translate(52 56)">
      <path d="M170 0 L334 72 L172 145 L5 74 Z" fill="#fbd38d"/>
      <path d="M5 74 L172 145 L172 330 L5 250 Z" fill="#de7c5a"/>
      <path d="M334 72 L172 145 L172 330 L334 242 Z" fill="#b85555"/>
      <path d="M50 192 L172 250 L290 188" fill="none" stroke="#fffaf7" stroke-width="7" opacity="0.74"/>
      <path d="M58 238 L172 294 L282 232" fill="none" stroke="#fffaf7" stroke-width="7" opacity="0.74"/>
    </g>
    <text x="44" y="430" font-family="Arial, sans-serif" font-size="30" font-weight="700" fill="#231d31">Stratum</text>
    <text x="44" y="465" font-family="Arial, sans-serif" font-size="20" fill="#65556f">resin-aware slicing and G-code</text>
  </g>
  <g transform="translate(620 98)" font-family="Arial, sans-serif">
    <rect x="0" y="0" width="418" height="92" rx="18" fill="#fffaf7" opacity="0.94"/>
    <text x="28" y="38" fill="#231d31" font-size="22" font-weight="700">Volumetric exposure plan</text>
    <text x="28" y="65" fill="#65556f" font-size="17">simulation output from Torrentem</text>
    <path d="M210 96 V138" stroke="#fffaf7" stroke-width="4" stroke-linecap="round"/>
    <rect x="0" y="142" width="418" height="92" rx="18" fill="#fffaf7" opacity="0.94"/>
    <text x="28" y="180" fill="#231d31" font-size="22" font-weight="700">Layer planner</text>
    <text x="28" y="207" fill="#65556f" font-size="17">irradiance, peel timing, lift speed</text>
    <path d="M210 238 V280" stroke="#fffaf7" stroke-width="4" stroke-linecap="round"/>
    <rect x="0" y="284" width="418" height="166" rx="18" fill="#fffaf7" opacity="0.94"/>
    <text x="28" y="320" fill="#231d31" font-size="22" font-weight="700">Machine output</text>
    <rect x="28" y="344" width="304" height="16" rx="8" fill="#e7d8eb"/>
    <rect x="28" y="374" width="354" height="16" rx="8" fill="#e7d8eb"/>
    <rect x="28" y="404" width="242" height="16" rx="8" fill="#e7d8eb"/>
  </g>
  <g transform="translate(700 556)" fill="none" stroke="url(#layer)" stroke-width="8" stroke-linecap="round">
    <path d="M0 0 H348"/>
    <path d="M26 34 H322"/>
    <path d="M58 68 H290"/>
  </g>
</svg>
